<?xml version="1.0" standalone="no"?>
<!DOCTYPE svg PUBLIC "-//W3C//DTD SVG 20010904//EN"
 "http://www.w3.org/TR/2001/REC-SVG-20010904/DTD/svg10.dtd">
<svg version="1.0" xmlns="http://www.w3.org/2000/svg"
 width="300.000000pt" height="300.000000pt" viewBox="0 0 300.000000 300.000000"
 preserveAspectRatio="xMidYMid meet">
<metadata>
Created by potrace 1.11, written by Peter Selinger 2001-2013
</metadata>
<g transform="translate(0.000000,300.000000) scale(0.100000,-0.100000)"
fill="#000000" stroke="none">
<path d="M1629 2926 c-2 -3 -43 -7 -89 -10 -91 -7 -195 -16 -220 -21 -8 -1
-40 -6 -70 -10 -30 -4 -64 -9 -75 -11 -10 -2 -35 -6 -55 -9 -20 -3 -47 -7 -60
-10 -14 -3 -41 -8 -60 -11 -19 -4 -42 -8 -50 -10 -71 -16 -117 -28 -190 -51
-47 -15 -87 -27 -90 -28 -28 -9 -184 -78 -190 -85 -3 -3 -18 -12 -35 -20 -16
-8 -35 -19 -41 -25 -6 -5 -22 -17 -35 -25 -61 -40 -155 -134 -202 -204 -23
-34 -66 -117 -72 -136 0 -3 -11 -36 -23 -75 -38 -122 -46 -193 -46 -390 0
-135 5 -230 18 -350 12 -106 18 -152 21 -175 2 -14 6 -47 10 -75 11 -92 25
-180 40 -255 8 -40 19 -95 20 -100 1 -3 5 -18 9 -35 4 -16 11 -41 16 -55 4
-14 14 -45 21 -70 20 -72 88 -210 135 -276 84 -119 207 -209 352 -258 37 -13
70 -23 75 -24 4 0 22 -4 40 -8 17 -4 43 -8 57 -9 14 -2 25 -3 25 -4 0 -19 425
-15 575 4 19 2 60 7 90 10 65 6 123 13 165 20 42 7 145 18 173 19 12 1 22 3
22 6 0 3 12 5 28 6 15 0 43 4 62 7 19 4 49 9 65 12 76 13 203 47 305 82 372
126 574 392 617 812 13 133 7 489 -11 576 -2 11 -7 52 -10 90 -4 39 -9 77 -11
85 -3 8 -7 35 -9 60 -3 25 -7 55 -10 66 -2 12 -7 39 -10 60 -13 81 -58 245
-90 328 -57 145 -139 260 -255 360 -64 54 -259 146 -346 162 -50 10 -131 27
-145 31 -39 13 -338 31 -375 23 -25 -5 -41 -5 -51 2 -6 4 -13 6 -15 4z m256
-486 c84 -24 148 -62 188 -112 57 -71 35 -209 -44 -267 -57 -43 -103 -46 -217
-17 -282 72 -585 -21 -723 -220 -70 -102 -99 -257 -80 -422 47 -404 236 -615
489 -547 169 46 245 155 276 399 l12 98 -41 -4 c-22 -3 -80 -23 -127 -46 -104
-48 -136 -56 -193 -48 -99 15 -186 146 -156 234 45 130 182 210 446 262 138
27 360 28 464 0 102 -26 140 -58 168 -143 20 -58 22 -73 12 -117 -16 -76 -80
-140 -139 -140 -18 0 -21 -4 -16 -27 3 -16 8 -46 11 -68 17 -111 56 -252 104
-373 31 -79 28 -149 -9 -200 -79 -110 -237 -111 -322 -3 l-24 31 -64 -63
c-138 -134 -301 -197 -515 -197 -118 0 -197 17 -300 64 -291 133 -477 479
-492 916 -9 246 21 394 114 555 151 264 424 429 783 475 106 14 315 3 395 -20z"/>
</g>
</svg>
